<svg version="1" xmlns="http://www.w3.org/2000/svg" width="800pt" height="800pt" viewBox="0 0 800.000000 800.000000"><path d="M184.7 169.4C92.5 261.9 13.1 341.3 8.4 346l-8.5 8.6 2.9 5.4c1.6 3 11.8 23 22.7 44.5 10.9 21.4 20.2 39.6 20.8 40.2.5.7.6 1.3.2 1.3-.4 0-.2.6.4 1.3 1.2 1.5 5.2 9.2 33.1 64.2 10 19.8 23.1 45.4 29 57 5.9 11.5 17.6 34.5 26 51 8.4 16.5 20.6 40.3 27 53 12 23.5 36.9 72.4 51.4 101 4.4 8.8 8.3 16.2 8.6 16.5.3.3 1.5 2.7 2.8 5.3 1.7 3.7 2.7 4.7 4 4.3.9-.3 3.7-.8 6.2-1 2.5-.3 8.3-1.2 13-2 4.7-.8 10.5-1.8 13-2.1 2.5-.3 5.2-.8 6-1 .8-.2 3.7-.7 6.4-1 2.7-.3 5.1-.7 5.5-.9.3-.2 3.5-.7 7-1 3.6-.4 6.7-.9 7-1.1.4-.2 2.7-.6 5.1-1 2.5-.3 8.8-1.3 14-2.1 5.2-.8 11.1-1.7 13-2 1.9-.3 8.7-1.4 15-2.4 6.3-1.1 13.1-2.2 15-2.4 5.8-.8 36.4-5.6 38-6.1.8-.2 3.5-.6 6-.9 2.5-.4 5.6-.8 7-1 1.4-.3 4.1-.7 6-1 1.9-.3 8-1.2 13.5-2.1 14.2-2.3 14.6-2.3 19-3 2.3-.3 5.2-.8 6.5-1 3-.6 5.1-1 15-2.5 4.1-.6 8.6-1.3 10-1.6 1.4-.2 4.3-.6 6.5-.9 2.2-.3 5.1-.7 6.5-1 1.4-.3 4.1-.8 6-1.1 4.6-.7 7.1-1.1 15.5-2.4 11.1-1.7 12.8-2 15.5-2.5 1.4-.2 4.3-.7 6.5-1 2.3-.3 5-.7 6-.9 1.1-.2 5.2-.9 9-1.5 10.9-1.7 14.8-2.3 17-2.6 1.1-.2 3.8-.6 6-1 2.2-.3 5-.8 6.2-1 1.2-.3 4.1-.7 6.5-1 4.5-.6 6.9-1 15.8-2.5 3-.5 7.3-1.2 9.5-1.5 2.2-.3 5.1-.8 6.5-1 1.4-.3 4.1-.7 6-1 1.9-.3 6.3-.9 9.8-1.5 3.4-.5 9-1.5 12.5-2 3.4-.6 7.6-1.2 9.2-1.5 1.7-.2 7.5-1.1 13-2 5.5-.9 11.1-1.8 12.5-2 1.4-.2 6.8-1.1 12-1.9 5.2-.8 11.1-1.8 13-2 1.9-.3 4.6-.8 6-1.1 1.4-.3 4.5-.8 7-1.1 2.5-.3 4.6-.7 4.7-.8 0 0 .4-1.9.7-4.1.4-2.2 1.1-6.5 1.6-9.5s1.2-7.3 1.5-9.5c.3-2.3.7-5.2 1-6.5.5-2.6 1.4-8.3 1.9-12.7.2-1.5.9-5.5 1.5-8.8.6-3.3 1.3-8 1.6-10.5.3-2.5 1-7 1.5-10s1.2-7.2 1.6-9.4c.3-2.1.7-4.8 1-5.9.2-1.2.6-3.9.9-6.2.3-2.2.8-5.1 1-6.5.3-1.4.7-3.9.9-5.5 1.5-9.2 2.6-16.5 3.1-20 .8-5 1.3-8.3 2-11.5.3-1.4.8-4.5 1.1-7 .9-6.9 1-7.6 3.4-22 1.2-7.4 2.3-14.9 2.6-16.5.2-1.7.6-4.1.9-5.5.3-1.4.7-4.3 1-6.4.5-3.7 2.4-15.8 6-38.1.8-5 1.7-10.5 2-12.3 1-6.6 1.5-9.8 2-12.2.3-1.4.7-4.8 1.1-7.5.3-2.8.8-5.9 1-7 .2-1.1 1.7-10.3 3.3-20.5 4-24.9 3.7-23.3 5.4-34 1.4-8.5 2.3-14.3 3.3-20.5.1-1.1.5-3.6.8-5.5.4-1.9.8-4.9 1-6.5.2-1.7 1.1-7.1 2-12 .8-5 1.8-11 2.1-13.5.3-2.5.8-5.6 1-7 .5-2.8.6-3.6 3.5-21.5 1.1-7.2 3-18.6 4.1-25.5 2.5-15.4 2.6-16.5 3.4-21.5.3-2.3.7-5 .9-6 .2-1.1.7-4.2 1-6.8.4-2.7.9-5.9 1.2-7 .6-3.4 1.7-11 1.8-13.1.1-2-3.3-3.8-52.9-28.9-13.2-6.7-24.3-12.5-24.6-13-.3-.5-.9-.8-1.3-.8-.7.1-7.3-3.1-40.1-19.9-57.4-29.3-111.4-56.8-144-73.3-7.7-3.9-14.1-7.5-14.3-7.9-.2-.5-1-.8-1.7-.8-.8 0-3.8-1.3-6.7-2.9-2.9-1.5-20.6-10.6-39.3-20.1-31-15.8-58.8-29.9-103.4-52.6-9-4.6-16.6-8.3-17-8.2-.3 0-76.1 75.7-168.4 168.2z"/></svg>